<?xml version="1.0" standalone="no"?>
<!DOCTYPE svg PUBLIC "-//W3C//DTD SVG 20010904//EN"
"http://www.w3.org/TR/2001/REC-SVG-20010904/DTD/svg10.dtd">
<svg xmlns="http://www.w3.org/2000/svg" xmlns:xlink="http://www.w3.org/1999/xlink"
    width="18.13cm" height="16.09cm" viewBox="0 0 514 456 ">
<title>SVG Picture created as JPN_adm1LisaScatterPlotFrame.svg </title>
<desc>Picture generated by wxSVG v0100 </desc>
<g style="fill:black; stroke:black; stroke-width:1">
</g>
<g style="fill:#FFFFFF; fill-opacity:1.00; stroke:#FFFFFF; stroke-opacity:1.00; stroke-linecap:round; stroke-linejoin:round; stroke-width:1" 
   transform="translate(0.00 0.00) scale(1.00 1.00)">
 <rect x="0" y="0" width="514" height="456" rx="0.00"  /> 
</g>
<g style="fill:#0000FF; fill-opacity:1.00; stroke:#000000; stroke-opacity:1.00; stroke-linecap:round; stroke-linejoin:round; stroke-width:1" 
   transform="translate(0.00 0.00) scale(1.00 1.00)">
<path d="M79 406 L460 406" /> 
<path d="M79 406 L79 411" /> 
 <text x="67" y="423" style="font-family:宋体; font-weight:normal; font-style:normal; font-size:8pt; fill:#000000; fill-opacity:1.00; stroke:#000000; stroke-opacity:1.00; stroke-width:0;"  transform="rotate( -0.00 67 423 )  " >-3.9</text> 
<path d="M152 406 L152 411" /> 
 <text x="140" y="423" style="font-family:宋体; font-weight:normal; font-style:normal; font-size:8pt; fill:#000000; fill-opacity:1.00; stroke:#000000; stroke-opacity:1.00; stroke-width:0;"  transform="rotate( -0.00 140 423 )  " >-2.4</text> 
<path d="M225 406 L225 411" /> 
 <text x="213" y="423" style="font-family:宋体; font-weight:normal; font-style:normal; font-size:8pt; fill:#000000; fill-opacity:1.00; stroke:#000000; stroke-opacity:1.00; stroke-width:0;"  transform="rotate( -0.00 213 423 )  " >-0.9</text> 
<path d="M298 406 L298 411" /> 
 <text x="289" y="423" style="font-family:宋体; font-weight:normal; font-style:normal; font-size:8pt; fill:#000000; fill-opacity:1.00; stroke:#000000; stroke-opacity:1.00; stroke-width:0;"  transform="rotate( -0.00 289 423 )  " >0.6</text> 
<path d="M372 406 L372 411" /> 
 <text x="363" y="423" style="font-family:宋体; font-weight:normal; font-style:normal; font-size:8pt; fill:#000000; fill-opacity:1.00; stroke:#000000; stroke-opacity:1.00; stroke-width:0;"  transform="rotate( -0.00 363 423 )  " >2.1</text> 
<path d="M445 406 L445 411" /> 
 <text x="436" y="423" style="font-family:宋体; font-weight:normal; font-style:normal; font-size:8pt; fill:#000000; fill-opacity:1.00; stroke:#000000; stroke-opacity:1.00; stroke-width:0;"  transform="rotate( -0.00 436 423 )  " >3.6</text> 
 <text x="260" y="441" style="font-family:宋体; font-weight:normal; font-style:normal; font-size:8pt; fill:#000000; fill-opacity:1.00; stroke:#000000; stroke-opacity:1.00; stroke-width:0;"  transform="rotate( -0.00 260 441 )  " >Pop</text> 
</g>
<g style="fill:#0000FF; fill-opacity:1.00; stroke:#000000; stroke-opacity:1.00; stroke-linecap:round; stroke-linejoin:round; stroke-width:1" 
   transform="translate(0.00 0.00) scale(1.00 1.00)">
<path d="M79 406 L79 25" /> 
<path d="M74 406 L79 406" /> 
 <text x="68" y="417" style="font-family:宋体; font-weight:normal; font-style:normal; font-size:8pt; fill:#000000; fill-opacity:1.00; stroke:#000000; stroke-opacity:1.00; stroke-width:0;"  transform="rotate( -90.00 68 417 )  " >-3.9</text> 
<path d="M74 332 L79 332" /> 
 <text x="68" y="343" style="font-family:宋体; font-weight:normal; font-style:normal; font-size:8pt; fill:#000000; fill-opacity:1.00; stroke:#000000; stroke-opacity:1.00; stroke-width:0;"  transform="rotate( -90.00 68 343 )  " >-2.4</text> 
<path d="M74 259 L79 259" /> 
 <text x="68" y="270" style="font-family:宋体; font-weight:normal; font-style:normal; font-size:8pt; fill:#000000; fill-opacity:1.00; stroke:#000000; stroke-opacity:1.00; stroke-width:0;"  transform="rotate( -90.00 68 270 )  " >-0.9</text> 
<path d="M74 186 L79 186" /> 
 <text x="68" y="194" style="font-family:宋体; font-weight:normal; font-style:normal; font-size:8pt; fill:#000000; fill-opacity:1.00; stroke:#000000; stroke-opacity:1.00; stroke-width:0;"  transform="rotate( -90.00 68 194 )  " >0.6</text> 
<path d="M74 112 L79 112" /> 
 <text x="68" y="120" style="font-family:宋体; font-weight:normal; font-style:normal; font-size:8pt; fill:#000000; fill-opacity:1.00; stroke:#000000; stroke-opacity:1.00; stroke-width:0;"  transform="rotate( -90.00 68 120 )  " >2.1</text> 
<path d="M74 39 L79 39" /> 
 <text x="68" y="47" style="font-family:宋体; font-weight:normal; font-style:normal; font-size:8pt; fill:#000000; fill-opacity:1.00; stroke:#000000; stroke-opacity:1.00; stroke-width:0;"  transform="rotate( -90.00 68 47 )  " >3.6</text> 
 <text x="50" y="245" style="font-family:宋体; font-weight:normal; font-style:normal; font-size:8pt; fill:#000000; fill-opacity:1.00; stroke:#000000; stroke-opacity:1.00; stroke-width:0;"  transform="rotate( -90.00 50 245 )  " >lagged Pop</text> 
</g>
<g style="fill:#0000FF; fill-opacity:1.00; stroke:#787878; stroke-linecap:round; stroke-linejoin:round; stroke-width:1" 
   transform="translate(0.00 0.00) scale(1.00 1.00)">
<path d="M79 215 L460 215" /> 
</g>
<g style="fill:#0000FF; fill-opacity:1.00; stroke:#787878; stroke-linecap:round; stroke-linejoin:round; stroke-width:1" 
   transform="translate(0.00 0.00) scale(1.00 1.00)">
<path d="M269 406 L269 25" /> 
</g>
<g style="fill:#000000; fill-opacity:0.0; stroke:#004FF1; stroke-opacity:1.00; stroke-linecap:round; stroke-linejoin:round; stroke-width:1" 
   transform="translate(0.00 0.00) scale(1.00 1.00)">
<ellipse cx="347" cy="215" rx="2" ry="2"  /> 
<ellipse cx="192" cy="228" rx="2" ry="2"  /> 
<ellipse cx="242" cy="270" rx="2" ry="2"  /> 
<ellipse cx="331" cy="131" rx="2" ry="2"  /> 
<ellipse cx="230" cy="260" rx="2" ry="2"  /> 
<ellipse cx="262" cy="191" rx="2" ry="2"  /> 
<ellipse cx="298" cy="251" rx="2" ry="2"  /> 
<ellipse cx="264" cy="205" rx="2" ry="2"  /> 
<ellipse cx="270" cy="200" rx="2" ry="2"  /> 
<ellipse cx="284" cy="205" rx="2" ry="2"  /> 
<ellipse cx="280" cy="257" rx="2" ry="2"  /> 
<ellipse cx="270" cy="215" rx="2" ry="2"  /> 
<ellipse cx="291" cy="201" rx="2" ry="2"  /> 
<ellipse cx="293" cy="175" rx="2" ry="2"  /> 
<ellipse cx="282" cy="223" rx="2" ry="2"  /> 
<ellipse cx="235" cy="233" rx="2" ry="2"  /> 
<ellipse cx="248" cy="258" rx="2" ry="2"  /> 
<ellipse cx="214" cy="259" rx="2" ry="2"  /> 
<ellipse cx="367" cy="157" rx="2" ry="2"  /> 
<ellipse cx="203" cy="258" rx="2" ry="2"  /> 
<ellipse cx="235" cy="247" rx="2" ry="2"  /> 
<ellipse cx="302" cy="193" rx="2" ry="2"  /> 
<ellipse cx="280" cy="195" rx="2" ry="2"  /> 
<ellipse cx="318" cy="254" rx="2" ry="2"  /> 
<ellipse cx="215" cy="261" rx="2" ry="2"  /> 
<ellipse cx="246" cy="198" rx="2" ry="2"  /> 
<ellipse cx="221" cy="240" rx="2" ry="2"  /> 
<ellipse cx="261" cy="196" rx="2" ry="2"  /> 
<ellipse cx="246" cy="230" rx="2" ry="2"  /> 
<ellipse cx="219" cy="234" rx="2" ry="2"  /> 
<ellipse cx="264" cy="216" rx="2" ry="2"  /> 
<ellipse cx="333" cy="215" rx="2" ry="2"  /> 
<ellipse cx="333" cy="212" rx="2" ry="2"  /> 
<ellipse cx="244" cy="224" rx="2" ry="2"  /> 
<ellipse cx="338" cy="176" rx="2" ry="2"  /> 
<ellipse cx="318" cy="205" rx="2" ry="2"  /> 
<ellipse cx="203" cy="243" rx="2" ry="2"  /> 
<ellipse cx="280" cy="175" rx="2" ry="2"  /> 
<ellipse cx="302" cy="189" rx="2" ry="2"  /> 
<ellipse cx="223" cy="257" rx="2" ry="2"  /> 
<ellipse cx="427" cy="156" rx="2" ry="2"  /> 
<ellipse cx="233" cy="224" rx="2" ry="2"  /> 
<ellipse cx="250" cy="223" rx="2" ry="2"  /> 
<ellipse cx="235" cy="193" rx="2" ry="2"  /> 
<ellipse cx="228" cy="229" rx="2" ry="2"  /> 
<ellipse cx="208" cy="242" rx="2" ry="2"  /> 
<ellipse cx="275" cy="152" rx="2" ry="2"  /> 
</g>
<g style="fill:#000000; fill-opacity:0.0; stroke:#64006E; stroke-opacity:1.00; stroke-linecap:round; stroke-linejoin:round; stroke-width:1" 
   transform="translate(0.00 0.00) scale(1.00 1.00)">
<path d="M79 297 L460 136" /> 
</g>
<g style="fill:#000000; fill-opacity:0.0; stroke:#000000; stroke-opacity:0.0; stroke-linecap:round; stroke-linejoin:round; stroke-width:1" 
   transform="translate(0.00 0.00) scale(1.00 1.00)">
<path d="M79 25 L79 25" /> 
</g>
<g style="fill:#000000; fill-opacity:0.0; stroke:#000000; stroke-opacity:0.0; stroke-linecap:round; stroke-linejoin:round; stroke-width:1" 
   transform="translate(0.00 0.00) scale(1.00 1.00)">
<path d="M79 25 L79 25" /> 
</g>
<g style="fill:#0000FF; fill-opacity:1.00; stroke:#64006E; stroke-opacity:1.00; stroke-linecap:round; stroke-linejoin:round; stroke-width:1" 
   transform="translate(0.00 0.00) scale(1.00 1.00)">
 <text x="212" y="13" style="font-family:宋体; font-weight:normal; font-style:normal; font-size:8pt; fill:#64006E; fill-opacity:1.00; stroke:#64006E; stroke-opacity:1.00; stroke-width:0;"  transform="rotate( -0.00 212 13 )  " >Moran&apos;s I: 0.422796</text> 
</g> 
</svg> 
